<svg xmlns="http://www.w3.org/2000/svg" x="0px" y="0px" width="77px" height="50px" viewBox="0 0 532 532" enable-background="new 0 0 532 532" xml:space="preserve"> <text font-family="Roboto" stroke-miterlimit="10" fill="#006699" transform="matrix(2.74 0 0 2.61 376.69 598.65)"><tspan x="-133.33" y="8.98" stroke-width="0" stroke-miterlimit="4">V</tspan><tspan x="-111.94" y="8.98" stroke-width="0" stroke-miterlimit="4">i</tspan><tspan x="-104.19" y="8.98" stroke-width="0" stroke-miterlimit="4">s</tspan><tspan x="-85.89" y="8.98" stroke-width="0" stroke-miterlimit="4">u</tspan><tspan x="-65.42" y="8.98" stroke-width="0" stroke-miterlimit="4">a</tspan><tspan x="-45.22" y="8.98" stroke-width="0" stroke-miterlimit="4">l</tspan><tspan x="-37.8" y="8.98" stroke-width="0" stroke-miterlimit="4"> </tspan><tspan x="-24.62" y="8.98" stroke-width="0" stroke-miterlimit="4">C</tspan><tspan x=".65" y="8.98" stroke-width="0" stroke-miterlimit="4">l</tspan><tspan x="8.08" y="8.98" stroke-width="0" stroke-miterlimit="4">o</tspan><tspan x="29.46" y="8.98" stroke-width="0" stroke-miterlimit="4">u</tspan><tspan x="49.93" y="8.98" stroke-width="0" stroke-miterlimit="4">d</tspan><tspan x="71.12" y="8.98" stroke-width="0" stroke-miterlimit="4"> </tspan><tspan x="84.31" y="8.98" stroke-width="0" stroke-miterlimit="4">F</tspan><tspan x="106.1" y="8.98" stroke-width="0" stroke-miterlimit="4">X</tspan></text><g transform="matrix(1.03 0 0 1.03 113.14 10)" stroke-miterlimit="10" fill="none"><path d="M510.074 287.465A258.522 258.522 0 0 0 512 256C512 114.616 397.385 0 256 0 114.616 0 .001 114.615 0 256c0 101.494 59.066 189.19 144.697 230.598l365.377-199.133z" fill="#4EB9FF"/><path d="M256.001 33.391l-49.863 203.03-160.396 18.361 153.115 153.114 168.448 78.687c76.634-37.064 131.992-111.193 142.77-199.119L256.001 33.391z" fill="#45A2E0"/><path d="M213.841 182.81a42.24 42.24 0 0 0-9.114 1c-4.4-29.203-29.599-51.592-60.03-51.592l-26.982 67.457 26.981 67.456h69.143c23.285 0 42.161-18.876 42.161-42.161s-18.875-42.16-42.159-42.16z" fill="#C7E9FF"/><path d="M84.668 183.808a42.302 42.302 0 0 0-9.114-.999c-23.285 0-42.161 18.876-42.161 42.161s18.875 42.161 42.16 42.161h69.143V132.216c-30.429 0-55.629 22.389-60.028 51.592z" fill="#FFFFFF"/><path fill="#092A40" d="M256 33.39L214.26 137.74 256 172.52 297.74 137.74z"/><path fill="#FFF5D9" d="M297.74 137.74L256 137.74 211.48 356.17 367.31 311.65z"/><path fill="#FFFFFF" d="M214.26 137.74L144.7 311.65 256 356.17 256 137.74z"/><path d="M256 311.652l-44.522 77.907L256 512c39.89 0 77.648-9.127 111.304-25.402V311.652H256z" fill="#395D74"/><path d="M144.696 311.652v174.946C178.352 502.873 216.11 512 256 512V311.652H144.696z" fill="#5A7587"/><rect x="175.3" y="411.83" rx="0" ry="0" width="33.39" height="55.65" fill="#FFFFFF"/><rect x="303.3" y="411.83" rx="0" ry="0" width="33.39" height="55.65" fill="#FFF5D9"/><path fill="#FFF5D9" d="M272.7 411.83L256 411.83 244.87 439.65 256 467.48 272.7 467.48z"/><rect x="239.3" y="411.83" rx="0" ry="0" width="16.7" height="55.65" fill="#FFFFFF"/><rect x="175.3" y="333.91" rx="0" ry="0" width="33.39" height="55.65" fill="#FFFFFF"/><rect x="303.3" y="333.91" rx="0" ry="0" width="33.39" height="55.65" fill="#FFF5D9"/><path fill="#FFF5D9" d="M272.7 333.91L256 333.91 244.87 361.74 256 389.56 272.7 389.56z"/><rect x="239.3" y="333.91" rx="0" ry="0" width="16.7" height="55.65" fill="#FFFFFF"/><path d="M436.449 249.592a42.24 42.24 0 0 0-9.114 1c-4.4-29.203-29.599-51.592-60.03-51.592l-26.982 67.457 26.981 67.456h69.143c23.285 0 42.161-18.876 42.161-42.161.001-23.284-18.875-42.16-42.159-42.16z" fill="#A3DBFF"/><path d="M307.275 250.591a42.302 42.302 0 0 0-9.114-.999c-23.285 0-42.161 18.876-42.161 42.161s18.876 42.161 42.161 42.161h69.143V198.999c-30.429 0-55.63 22.389-60.029 51.592z" fill="#C7E9FF"/></g></svg>